<svg xmlns="http://www.w3.org/2000/svg" version="1.1" xmlns:xlink="http://www.w3.org/1999/xlink" xmlns:svgjs="http://svgjs.dev/svgjs" viewBox="0 0 800 800" width="800" height="800"><g stroke-width="1.75" stroke="hsla(353, 98%, 41%, 1.00)" fill="none"><rect width="8.947368421052632" height="8.947368421052632" x="-4.473684210526316" y="-4.473684210526316" fill="hsla(353, 98%, 41%, 1.00)" stroke="none" transform="rotate(45, 0, 0)"></rect><rect width="8.947368421052632" height="8.947368421052632" x="39.97076023391813" y="-4.473684210526316" fill="hsla(353, 98%, 41%, 1.00)" stroke="none" transform="rotate(45, 44.44444444444444, 0)"></rect><rect width="8.947368421052632" height="8.947368421052632" x="84.41520467836257" y="-4.473684210526316" fill="hsla(353, 98%, 41%, 1.00)" stroke="none" transform="rotate(45, 88.88888888888889, 0)"></rect><rect width="8.947368421052632" height="8.947368421052632" x="128.85964912280699" y="-4.473684210526316" fill="hsla(353, 98%, 41%, 1.00)" stroke="none" transform="rotate(45, 133.33333333333331, 0)"></rect><rect width="8.947368421052632" height="8.947368421052632" x="173.30409356725144" y="-4.473684210526316" fill="hsla(353, 98%, 41%, 1.00)" stroke="none" transform="rotate(45, 177.77777777777777, 0)"></rect><rect width="8.947368421052632" height="8.947368421052632" x="217.7485380116959" y="-4.473684210526316" fill="hsla(353, 98%, 41%, 1.00)" stroke="none" transform="rotate(45, 222.22222222222223, 0)"></rect><rect width="8.947368421052632" height="8.947368421052632" x="262.1929824561404" y="-4.473684210526316" fill="hsla(353, 98%, 41%, 1.00)" stroke="none" transform="rotate(45, 266.6666666666667, 0)"></rect><rect width="8.947368421052632" height="8.947368421052632" x="306.63742690058484" y="-4.473684210526316" fill="hsla(353, 98%, 41%, 1.00)" stroke="none" transform="rotate(45, 311.11111111111114, 0)"></rect><rect width="8.947368421052632" height="8.947368421052632" x="351.0818713450293" y="-4.473684210526316" fill="hsla(353, 98%, 41%, 1.00)" stroke="none" transform="rotate(45, 355.5555555555556, 0)"></rect><rect width="8.947368421052632" height="8.947368421052632" x="395.52631578947376" y="-4.473684210526316" fill="hsla(353, 98%, 41%, 1.00)" stroke="none" transform="rotate(45, 400.00000000000006, 0)"></rect><rect width="8.947368421052632" height="8.947368421052632" x="439.9707602339182" y="-4.473684210526316" fill="hsla(353, 98%, 41%, 1.00)" stroke="none" transform="rotate(45, 444.4444444444445, 0)"></rect><rect width="8.947368421052632" height="8.947368421052632" x="484.41520467836267" y="-4.473684210526316" fill="hsla(353, 98%, 41%, 1.00)" stroke="none" transform="rotate(45, 488.88888888888897, 0)"></rect><rect width="8.947368421052632" height="8.947368421052632" x="528.859649122807" y="-4.473684210526316" fill="hsla(353, 98%, 41%, 1.00)" stroke="none" transform="rotate(45, 533.3333333333334, 0)"></rect><rect width="8.947368421052632" height="8.947368421052632" x="573.3040935672515" y="-4.473684210526316" fill="hsla(353, 98%, 41%, 1.00)" stroke="none" transform="rotate(45, 577.7777777777778, 0)"></rect><rect width="8.947368421052632" height="8.947368421052632" x="617.7485380116959" y="-4.473684210526316" fill="hsla(353, 98%, 41%, 1.00)" stroke="none" transform="rotate(45, 622.2222222222223, 0)"></rect><rect width="8.947368421052632" height="8.947368421052632" x="662.1929824561404" y="-4.473684210526316" fill="hsla(353, 98%, 41%, 1.00)" stroke="none" transform="rotate(45, 666.6666666666667, 0)"></rect><rect width="8.947368421052632" height="8.947368421052632" x="706.6374269005848" y="-4.473684210526316" fill="hsla(353, 98%, 41%, 1.00)" stroke="none" transform="rotate(45, 711.1111111111112, 0)"></rect><rect width="8.947368421052632" height="8.947368421052632" x="751.0818713450293" y="-4.473684210526316" fill="hsla(353, 98%, 41%, 1.00)" stroke="none" transform="rotate(45, 755.5555555555557, 0)"></rect><rect width="8.947368421052632" height="8.947368421052632" x="795.5263157894738" y="-4.473684210526316" fill="hsla(353, 98%, 41%, 1.00)" stroke="none" transform="rotate(45, 800.0000000000001, 0)"></rect><rect width="8.947368421052632" height="8.947368421052632" x="-4.473684210526316" y="39.97076023391813" fill="hsla(353, 98%, 41%, 1.00)" stroke="none" transform="rotate(45, 0, 44.44444444444444)"></rect><rect width="8.947368421052632" height="8.947368421052632" x="39.97076023391813" y="39.97076023391813" fill="hsla(353, 98%, 41%, 1.00)" stroke="none" transform="rotate(45, 44.44444444444444, 44.44444444444444)"></rect><rect width="8.947368421052632" height="8.947368421052632" x="84.41520467836257" y="39.97076023391813" fill="hsla(353, 98%, 41%, 1.00)" stroke="none" transform="rotate(45, 88.88888888888889, 44.44444444444444)"></rect><rect width="8.947368421052632" height="8.947368421052632" x="128.85964912280699" y="39.97076023391813" fill="hsla(353, 98%, 41%, 1.00)" stroke="none" transform="rotate(45, 133.33333333333331, 44.44444444444444)"></rect><rect width="8.947368421052632" height="8.947368421052632" x="173.30409356725144" y="39.97076023391813" fill="hsla(353, 98%, 41%, 1.00)" stroke="none" transform="rotate(45, 177.77777777777777, 44.44444444444444)"></rect><rect width="8.947368421052632" height="8.947368421052632" x="217.7485380116959" y="39.97076023391813" fill="hsla(353, 98%, 41%, 1.00)" stroke="none" transform="rotate(45, 222.22222222222223, 44.44444444444444)"></rect><rect width="8.947368421052632" height="8.947368421052632" x="262.1929824561404" y="39.97076023391813" fill="hsla(353, 98%, 41%, 1.00)" stroke="none" transform="rotate(45, 266.6666666666667, 44.44444444444444)"></rect><rect width="8.947368421052632" height="8.947368421052632" x="306.63742690058484" y="39.97076023391813" fill="hsla(353, 98%, 41%, 1.00)" stroke="none" transform="rotate(45, 311.11111111111114, 44.44444444444444)"></rect><rect width="8.947368421052632" height="8.947368421052632" x="351.0818713450293" y="39.97076023391813" fill="hsla(353, 98%, 41%, 1.00)" stroke="none" transform="rotate(45, 355.5555555555556, 44.44444444444444)"></rect><rect width="8.947368421052632" height="8.947368421052632" x="395.52631578947376" y="39.97076023391813" fill="hsla(353, 98%, 41%, 1.00)" stroke="none" transform="rotate(45, 400.00000000000006, 44.44444444444444)"></rect><rect width="8.947368421052632" height="8.947368421052632" x="439.9707602339182" y="39.97076023391813" fill="hsla(353, 98%, 41%, 1.00)" stroke="none" transform="rotate(45, 444.4444444444445, 44.44444444444444)"></rect><rect width="8.947368421052632" height="8.947368421052632" x="484.41520467836267" y="39.97076023391813" fill="hsla(353, 98%, 41%, 1.00)" stroke="none" transform="rotate(45, 488.88888888888897, 44.44444444444444)"></rect><rect width="8.947368421052632" height="8.947368421052632" x="528.859649122807" y="39.97076023391813" fill="hsla(353, 98%, 41%, 1.00)" stroke="none" transform="rotate(45, 533.3333333333334, 44.44444444444444)"></rect><rect width="8.947368421052632" height="8.947368421052632" x="573.3040935672515" y="39.97076023391813" fill="hsla(353, 98%, 41%, 1.00)" stroke="none" transform="rotate(45, 577.7777777777778, 44.44444444444444)"></rect><rect width="8.947368421052632" height="8.947368421052632" x="617.7485380116959" y="39.97076023391813" fill="hsla(353, 98%, 41%, 1.00)" stroke="none" transform="rotate(45, 622.2222222222223, 44.44444444444444)"></rect><rect width="8.947368421052632" height="8.947368421052632" x="662.1929824561404" y="39.97076023391813" fill="hsla(353, 98%, 41%, 1.00)" stroke="none" transform="rotate(45, 666.6666666666667, 44.44444444444444)"></rect><rect width="8.947368421052632" height="8.947368421052632" x="706.6374269005848" y="39.97076023391813" fill="hsla(353, 98%, 41%, 1.00)" stroke="none" transform="rotate(45, 711.1111111111112, 44.44444444444444)"></rect><rect width="8.947368421052632" height="8.947368421052632" x="751.0818713450293" y="39.97076023391813" fill="hsla(353, 98%, 41%, 1.00)" stroke="none" transform="rotate(45, 755.5555555555557, 44.44444444444444)"></rect><rect width="8.947368421052632" height="8.947368421052632" x="795.5263157894738" y="39.97076023391813" fill="hsla(353, 98%, 41%, 1.00)" stroke="none" transform="rotate(45, 800.0000000000001, 44.44444444444444)"></rect><rect width="8.947368421052632" height="8.947368421052632" x="-4.473684210526316" y="84.41520467836257" fill="hsla(353, 98%, 41%, 1.00)" stroke="none" transform="rotate(45, 0, 88.88888888888889)"></rect><rect width="8.947368421052632" height="8.947368421052632" x="39.97076023391813" y="84.41520467836257" fill="hsla(353, 98%, 41%, 1.00)" stroke="none" transform="rotate(45, 44.44444444444444, 88.88888888888889)"></rect><rect width="8.947368421052632" height="8.947368421052632" x="84.41520467836257" y="84.41520467836257" fill="hsla(353, 98%, 41%, 1.00)" stroke="none" transform="rotate(45, 88.88888888888889, 88.88888888888889)"></rect><rect width="8.947368421052632" height="8.947368421052632" x="128.85964912280699" y="84.41520467836257" fill="hsla(353, 98%, 41%, 1.00)" stroke="none" transform="rotate(45, 133.33333333333331, 88.88888888888889)"></rect><rect width="8.947368421052632" height="8.947368421052632" x="173.30409356725144" y="84.41520467836257" fill="hsla(353, 98%, 41%, 1.00)" stroke="none" transform="rotate(45, 177.77777777777777, 88.88888888888889)"></rect><rect width="8.947368421052632" height="8.947368421052632" x="217.7485380116959" y="84.41520467836257" fill="hsla(353, 98%, 41%, 1.00)" stroke="none" transform="rotate(45, 222.22222222222223, 88.88888888888889)"></rect><rect width="8.947368421052632" height="8.947368421052632" x="262.1929824561404" y="84.41520467836257" fill="hsla(353, 98%, 41%, 1.00)" stroke="none" transform="rotate(45, 266.6666666666667, 88.88888888888889)"></rect><rect width="8.947368421052632" height="8.947368421052632" x="306.63742690058484" y="84.41520467836257" fill="hsla(353, 98%, 41%, 1.00)" stroke="none" transform="rotate(45, 311.11111111111114, 88.88888888888889)"></rect><rect width="8.947368421052632" height="8.947368421052632" x="351.0818713450293" y="84.41520467836257" fill="hsla(353, 98%, 41%, 1.00)" stroke="none" transform="rotate(45, 355.5555555555556, 88.88888888888889)"></rect><rect width="8.947368421052632" height="8.947368421052632" x="395.52631578947376" y="84.41520467836257" fill="hsla(353, 98%, 41%, 1.00)" stroke="none" transform="rotate(45, 400.00000000000006, 88.88888888888889)"></rect><rect width="8.947368421052632" height="8.947368421052632" x="439.9707602339182" y="84.41520467836257" fill="hsla(353, 98%, 41%, 1.00)" stroke="none" transform="rotate(45, 444.4444444444445, 88.88888888888889)"></rect><rect width="8.947368421052632" height="8.947368421052632" x="484.41520467836267" y="84.41520467836257" fill="hsla(353, 98%, 41%, 1.00)" stroke="none" transform="rotate(45, 488.88888888888897, 88.88888888888889)"></rect><rect width="8.947368421052632" height="8.947368421052632" x="528.859649122807" y="84.41520467836257" fill="hsla(353, 98%, 41%, 1.00)" stroke="none" transform="rotate(45, 533.3333333333334, 88.88888888888889)"></rect><rect width="8.947368421052632" height="8.947368421052632" x="573.3040935672515" y="84.41520467836257" fill="hsla(353, 98%, 41%, 1.00)" stroke="none" transform="rotate(45, 577.7777777777778, 88.88888888888889)"></rect><rect width="8.947368421052632" height="8.947368421052632" x="617.7485380116959" y="84.41520467836257" fill="hsla(353, 98%, 41%, 1.00)" stroke="none" transform="rotate(45, 622.2222222222223, 88.88888888888889)"></rect><rect width="8.947368421052632" height="8.947368421052632" x="662.1929824561404" y="84.41520467836257" fill="hsla(353, 98%, 41%, 1.00)" stroke="none" transform="rotate(45, 666.6666666666667, 88.88888888888889)"></rect><rect width="8.947368421052632" height="8.947368421052632" x="706.6374269005848" y="84.41520467836257" fill="hsla(353, 98%, 41%, 1.00)" stroke="none" transform="rotate(45, 711.1111111111112, 88.88888888888889)"></rect><rect width="8.947368421052632" height="8.947368421052632" x="751.0818713450293" y="84.41520467836257" fill="hsla(353, 98%, 41%, 1.00)" stroke="none" transform="rotate(45, 755.5555555555557, 88.88888888888889)"></rect><rect width="8.947368421052632" height="8.947368421052632" x="795.5263157894738" y="84.41520467836257" fill="hsla(353, 98%, 41%, 1.00)" stroke="none" transform="rotate(45, 800.0000000000001, 88.88888888888889)"></rect><rect width="8.947368421052632" height="8.947368421052632" x="-4.473684210526316" y="128.85964912280699" fill="hsla(353, 98%, 41%, 1.00)" stroke="none" transform="rotate(45, 0, 133.33333333333331)"></rect><rect width="8.947368421052632" height="8.947368421052632" x="39.97076023391813" y="128.85964912280699" fill="hsla(353, 98%, 41%, 1.00)" stroke="none" transform="rotate(45, 44.44444444444444, 133.33333333333331)"></rect><rect width="8.947368421052632" height="8.947368421052632" x="84.41520467836257" y="128.85964912280699" fill="hsla(353, 98%, 41%, 1.00)" stroke="none" transform="rotate(45, 88.88888888888889, 133.33333333333331)"></rect><rect width="8.947368421052632" height="8.947368421052632" x="128.85964912280699" y="128.85964912280699" fill="hsla(353, 98%, 41%, 1.00)" stroke="none" transform="rotate(45, 133.33333333333331, 133.33333333333331)"></rect><rect width="8.947368421052632" height="8.947368421052632" x="173.30409356725144" y="128.85964912280699" fill="hsla(353, 98%, 41%, 1.00)" stroke="none" transform="rotate(45, 177.77777777777777, 133.33333333333331)"></rect><rect width="8.947368421052632" height="8.947368421052632" x="217.7485380116959" y="128.85964912280699" fill="hsla(353, 98%, 41%, 1.00)" stroke="none" transform="rotate(45, 222.22222222222223, 133.33333333333331)"></rect><rect width="8.947368421052632" height="8.947368421052632" x="262.1929824561404" y="128.85964912280699" fill="hsla(353, 98%, 41%, 1.00)" stroke="none" transform="rotate(45, 266.6666666666667, 133.33333333333331)"></rect><rect width="8.947368421052632" height="8.947368421052632" x="306.63742690058484" y="128.85964912280699" fill="hsla(353, 98%, 41%, 1.00)" stroke="none" transform="rotate(45, 311.11111111111114, 133.33333333333331)"></rect><rect width="8.947368421052632" height="8.947368421052632" x="351.0818713450293" y="128.85964912280699" fill="hsla(353, 98%, 41%, 1.00)" stroke="none" transform="rotate(45, 355.5555555555556, 133.33333333333331)"></rect><rect width="8.947368421052632" height="8.947368421052632" x="395.52631578947376" y="128.85964912280699" fill="hsla(353, 98%, 41%, 1.00)" stroke="none" transform="rotate(45, 400.00000000000006, 133.33333333333331)"></rect><rect width="8.947368421052632" height="8.947368421052632" x="439.9707602339182" y="128.85964912280699" fill="hsla(353, 98%, 41%, 1.00)" stroke="none" transform="rotate(45, 444.4444444444445, 133.33333333333331)"></rect><rect width="8.947368421052632" height="8.947368421052632" x="484.41520467836267" y="128.85964912280699" fill="hsla(353, 98%, 41%, 1.00)" stroke="none" transform="rotate(45, 488.88888888888897, 133.33333333333331)"></rect><rect width="8.947368421052632" height="8.947368421052632" x="528.859649122807" y="128.85964912280699" fill="hsla(353, 98%, 41%, 1.00)" stroke="none" transform="rotate(45, 533.3333333333334, 133.33333333333331)"></rect><rect width="8.947368421052632" height="8.947368421052632" x="573.3040935672515" y="128.85964912280699" fill="hsla(353, 98%, 41%, 1.00)" stroke="none" transform="rotate(45, 577.7777777777778, 133.33333333333331)"></rect><rect width="8.947368421052632" height="8.947368421052632" x="617.7485380116959" y="128.85964912280699" fill="hsla(353, 98%, 41%, 1.00)" stroke="none" transform="rotate(45, 622.2222222222223, 133.33333333333331)"></rect><rect width="8.947368421052632" height="8.947368421052632" x="662.1929824561404" y="128.85964912280699" fill="hsla(353, 98%, 41%, 1.00)" stroke="none" transform="rotate(45, 666.6666666666667, 133.33333333333331)"></rect><rect width="8.947368421052632" height="8.947368421052632" x="706.6374269005848" y="128.85964912280699" fill="hsla(353, 98%, 41%, 1.00)" stroke="none" transform="rotate(45, 711.1111111111112, 133.33333333333331)"></rect><rect width="8.947368421052632" height="8.947368421052632" x="751.0818713450293" y="128.85964912280699" fill="hsla(353, 98%, 41%, 1.00)" stroke="none" transform="rotate(45, 755.5555555555557, 133.33333333333331)"></rect><rect width="8.947368421052632" height="8.947368421052632" x="795.5263157894738" y="128.85964912280699" fill="hsla(353, 98%, 41%, 1.00)" stroke="none" transform="rotate(45, 800.0000000000001, 133.33333333333331)"></rect><rect width="8.947368421052632" height="8.947368421052632" x="-4.473684210526316" y="173.30409356725144" fill="hsla(353, 98%, 41%, 1.00)" stroke="none" transform="rotate(45, 0, 177.77777777777777)"></rect><rect width="8.947368421052632" height="8.947368421052632" x="39.97076023391813" y="173.30409356725144" fill="hsla(353, 98%, 41%, 1.00)" stroke="none" transform="rotate(45, 44.44444444444444, 177.77777777777777)"></rect><rect width="8.947368421052632" height="8.947368421052632" x="84.41520467836257" y="173.30409356725144" fill="hsla(353, 98%, 41%, 1.00)" stroke="none" transform="rotate(45, 88.88888888888889, 177.77777777777777)"></rect><rect width="8.947368421052632" height="8.947368421052632" x="128.85964912280699" y="173.30409356725144" fill="hsla(353, 98%, 41%, 1.00)" stroke="none" transform="rotate(45, 133.33333333333331, 177.77777777777777)"></rect><rect width="8.947368421052632" height="8.947368421052632" x="173.30409356725144" y="173.30409356725144" fill="hsla(353, 98%, 41%, 1.00)" stroke="none" transform="rotate(45, 177.77777777777777, 177.77777777777777)"></rect><rect width="8.947368421052632" height="8.947368421052632" x="217.7485380116959" y="173.30409356725144" fill="hsla(353, 98%, 41%, 1.00)" stroke="none" transform="rotate(45, 222.22222222222223, 177.77777777777777)"></rect><rect width="8.947368421052632" height="8.947368421052632" x="262.1929824561404" y="173.30409356725144" fill="hsla(353, 98%, 41%, 1.00)" stroke="none" transform="rotate(45, 266.6666666666667, 177.77777777777777)"></rect><rect width="8.947368421052632" height="8.947368421052632" x="306.63742690058484" y="173.30409356725144" fill="hsla(353, 98%, 41%, 1.00)" stroke="none" transform="rotate(45, 311.11111111111114, 177.77777777777777)"></rect><rect width="8.947368421052632" height="8.947368421052632" x="351.0818713450293" y="173.30409356725144" fill="hsla(353, 98%, 41%, 1.00)" stroke="none" transform="rotate(45, 355.5555555555556, 177.77777777777777)"></rect><rect width="8.947368421052632" height="8.947368421052632" x="395.52631578947376" y="173.30409356725144" fill="hsla(353, 98%, 41%, 1.00)" stroke="none" transform="rotate(45, 400.00000000000006, 177.77777777777777)"></rect><rect width="8.947368421052632" height="8.947368421052632" x="439.9707602339182" y="173.30409356725144" fill="hsla(353, 98%, 41%, 1.00)" stroke="none" transform="rotate(45, 444.4444444444445, 177.77777777777777)"></rect><rect width="8.947368421052632" height="8.947368421052632" x="484.41520467836267" y="173.30409356725144" fill="hsla(353, 98%, 41%, 1.00)" stroke="none" transform="rotate(45, 488.88888888888897, 177.77777777777777)"></rect><rect width="8.947368421052632" height="8.947368421052632" x="528.859649122807" y="173.30409356725144" fill="hsla(353, 98%, 41%, 1.00)" stroke="none" transform="rotate(45, 533.3333333333334, 177.77777777777777)"></rect><rect width="8.947368421052632" height="8.947368421052632" x="573.3040935672515" y="173.30409356725144" fill="hsla(353, 98%, 41%, 1.00)" stroke="none" transform="rotate(45, 577.7777777777778, 177.77777777777777)"></rect><rect width="8.947368421052632" height="8.947368421052632" x="617.7485380116959" y="173.30409356725144" fill="hsla(353, 98%, 41%, 1.00)" stroke="none" transform="rotate(45, 622.2222222222223, 177.77777777777777)"></rect><rect width="8.947368421052632" height="8.947368421052632" x="662.1929824561404" y="173.30409356725144" fill="hsla(353, 98%, 41%, 1.00)" stroke="none" transform="rotate(45, 666.6666666666667, 177.77777777777777)"></rect><rect width="8.947368421052632" height="8.947368421052632" x="706.6374269005848" y="173.30409356725144" fill="hsla(353, 98%, 41%, 1.00)" stroke="none" transform="rotate(45, 711.1111111111112, 177.77777777777777)"></rect><rect width="8.947368421052632" height="8.947368421052632" x="751.0818713450293" y="173.30409356725144" fill="hsla(353, 98%, 41%, 1.00)" stroke="none" transform="rotate(45, 755.5555555555557, 177.77777777777777)"></rect><rect width="8.947368421052632" height="8.947368421052632" x="795.5263157894738" y="173.30409356725144" fill="hsla(353, 98%, 41%, 1.00)" stroke="none" transform="rotate(45, 800.0000000000001, 177.77777777777777)"></rect><rect width="8.947368421052632" height="8.947368421052632" x="-4.473684210526316" y="217.7485380116959" fill="hsla(353, 98%, 41%, 1.00)" stroke="none" transform="rotate(45, 0, 222.22222222222223)"></rect><rect width="8.947368421052632" height="8.947368421052632" x="39.97076023391813" y="217.7485380116959" fill="hsla(353, 98%, 41%, 1.00)" stroke="none" transform="rotate(45, 44.44444444444444, 222.22222222222223)"></rect><rect width="8.947368421052632" height="8.947368421052632" x="84.41520467836257" y="217.7485380116959" fill="hsla(353, 98%, 41%, 1.00)" stroke="none" transform="rotate(45, 88.88888888888889, 222.22222222222223)"></rect><rect width="8.947368421052632" height="8.947368421052632" x="128.85964912280699" y="217.7485380116959" fill="hsla(353, 98%, 41%, 1.00)" stroke="none" transform="rotate(45, 133.33333333333331, 222.22222222222223)"></rect><rect width="8.947368421052632" height="8.947368421052632" x="173.30409356725144" y="217.7485380116959" fill="hsla(353, 98%, 41%, 1.00)" stroke="none" transform="rotate(45, 177.77777777777777, 222.22222222222223)"></rect><rect width="8.947368421052632" height="8.947368421052632" x="217.7485380116959" y="217.7485380116959" fill="hsla(353, 98%, 41%, 1.00)" stroke="none" transform="rotate(45, 222.22222222222223, 222.22222222222223)"></rect><rect width="8.947368421052632" height="8.947368421052632" x="262.1929824561404" y="217.7485380116959" fill="hsla(353, 98%, 41%, 1.00)" stroke="none" transform="rotate(45, 266.6666666666667, 222.22222222222223)"></rect><rect width="8.947368421052632" height="8.947368421052632" x="306.63742690058484" y="217.7485380116959" fill="hsla(353, 98%, 41%, 1.00)" stroke="none" transform="rotate(45, 311.11111111111114, 222.22222222222223)"></rect><rect width="8.947368421052632" height="8.947368421052632" x="351.0818713450293" y="217.7485380116959" fill="hsla(353, 98%, 41%, 1.00)" stroke="none" transform="rotate(45, 355.5555555555556, 222.22222222222223)"></rect><rect width="8.947368421052632" height="8.947368421052632" x="395.52631578947376" y="217.7485380116959" fill="hsla(353, 98%, 41%, 1.00)" stroke="none" transform="rotate(45, 400.00000000000006, 222.22222222222223)"></rect><rect width="8.947368421052632" height="8.947368421052632" x="439.9707602339182" y="217.7485380116959" fill="hsla(353, 98%, 41%, 1.00)" stroke="none" transform="rotate(45, 444.4444444444445, 222.22222222222223)"></rect><rect width="8.947368421052632" height="8.947368421052632" x="484.41520467836267" y="217.7485380116959" fill="hsla(353, 98%, 41%, 1.00)" stroke="none" transform="rotate(45, 488.88888888888897, 222.22222222222223)"></rect><rect width="8.947368421052632" height="8.947368421052632" x="528.859649122807" y="217.7485380116959" fill="hsla(353, 98%, 41%, 1.00)" stroke="none" transform="rotate(45, 533.3333333333334, 222.22222222222223)"></rect><rect width="8.947368421052632" height="8.947368421052632" x="573.3040935672515" y="217.7485380116959" fill="hsla(353, 98%, 41%, 1.00)" stroke="none" transform="rotate(45, 577.7777777777778, 222.22222222222223)"></rect><rect width="8.947368421052632" height="8.947368421052632" x="617.7485380116959" y="217.7485380116959" fill="hsla(353, 98%, 41%, 1.00)" stroke="none" transform="rotate(45, 622.2222222222223, 222.22222222222223)"></rect><rect width="8.947368421052632" height="8.947368421052632" x="662.1929824561404" y="217.7485380116959" fill="hsla(353, 98%, 41%, 1.00)" stroke="none" transform="rotate(45, 666.6666666666667, 222.22222222222223)"></rect><rect width="8.947368421052632" height="8.947368421052632" x="706.6374269005848" y="217.7485380116959" fill="hsla(353, 98%, 41%, 1.00)" stroke="none" transform="rotate(45, 711.1111111111112, 222.22222222222223)"></rect><rect width="8.947368421052632" height="8.947368421052632" x="751.0818713450293" y="217.7485380116959" fill="hsla(353, 98%, 41%, 1.00)" stroke="none" transform="rotate(45, 755.5555555555557, 222.22222222222223)"></rect><rect width="8.947368421052632" height="8.947368421052632" x="795.5263157894738" y="217.7485380116959" fill="hsla(353, 98%, 41%, 1.00)" stroke="none" transform="rotate(45, 800.0000000000001, 222.22222222222223)"></rect><rect width="8.947368421052632" height="8.947368421052632" x="-4.473684210526316" y="262.1929824561404" fill="hsla(353, 98%, 41%, 1.00)" stroke="none" transform="rotate(45, 0, 266.6666666666667)"></rect><rect width="8.947368421052632" height="8.947368421052632" x="39.97076023391813" y="262.1929824561404" fill="hsla(353, 98%, 41%, 1.00)" stroke="none" transform="rotate(45, 44.44444444444444, 266.6666666666667)"></rect><rect width="8.947368421052632" height="8.947368421052632" x="84.41520467836257" y="262.1929824561404" fill="hsla(353, 98%, 41%, 1.00)" stroke="none" transform="rotate(45, 88.88888888888889, 266.6666666666667)"></rect><rect width="8.947368421052632" height="8.947368421052632" x="128.85964912280699" y="262.1929824561404" fill="hsla(353, 98%, 41%, 1.00)" stroke="none" transform="rotate(45, 133.33333333333331, 266.6666666666667)"></rect><rect width="8.947368421052632" height="8.947368421052632" x="173.30409356725144" y="262.1929824561404" fill="hsla(353, 98%, 41%, 1.00)" stroke="none" transform="rotate(45, 177.77777777777777, 266.6666666666667)"></rect><rect width="8.947368421052632" height="8.947368421052632" x="217.7485380116959" y="262.1929824561404" fill="hsla(353, 98%, 41%, 1.00)" stroke="none" transform="rotate(45, 222.22222222222223, 266.6666666666667)"></rect><rect width="8.947368421052632" height="8.947368421052632" x="262.1929824561404" y="262.1929824561404" fill="hsla(353, 98%, 41%, 1.00)" stroke="none" transform="rotate(45, 266.6666666666667, 266.6666666666667)"></rect><rect width="8.947368421052632" height="8.947368421052632" x="306.63742690058484" y="262.1929824561404" fill="hsla(353, 98%, 41%, 1.00)" stroke="none" transform="rotate(45, 311.11111111111114, 266.6666666666667)"></rect><rect width="8.947368421052632" height="8.947368421052632" x="351.0818713450293" y="262.1929824561404" fill="hsla(353, 98%, 41%, 1.00)" stroke="none" transform="rotate(45, 355.5555555555556, 266.6666666666667)"></rect><rect width="8.947368421052632" height="8.947368421052632" x="395.52631578947376" y="262.1929824561404" fill="hsla(353, 98%, 41%, 1.00)" stroke="none" transform="rotate(45, 400.00000000000006, 266.6666666666667)"></rect><rect width="8.947368421052632" height="8.947368421052632" x="439.9707602339182" y="262.1929824561404" fill="hsla(353, 98%, 41%, 1.00)" stroke="none" transform="rotate(45, 444.4444444444445, 266.6666666666667)"></rect><rect width="8.947368421052632" height="8.947368421052632" x="484.41520467836267" y="262.1929824561404" fill="hsla(353, 98%, 41%, 1.00)" stroke="none" transform="rotate(45, 488.88888888888897, 266.6666666666667)"></rect><rect width="8.947368421052632" height="8.947368421052632" x="528.859649122807" y="262.1929824561404" fill="hsla(353, 98%, 41%, 1.00)" stroke="none" transform="rotate(45, 533.3333333333334, 266.6666666666667)"></rect><rect width="8.947368421052632" height="8.947368421052632" x="573.3040935672515" y="262.1929824561404" fill="hsla(353, 98%, 41%, 1.00)" stroke="none" transform="rotate(45, 577.7777777777778, 266.6666666666667)"></rect><rect width="8.947368421052632" height="8.947368421052632" x="617.7485380116959" y="262.1929824561404" fill="hsla(353, 98%, 41%, 1.00)" stroke="none" transform="rotate(45, 622.2222222222223, 266.6666666666667)"></rect><rect width="8.947368421052632" height="8.947368421052632" x="662.1929824561404" y="262.1929824561404" fill="hsla(353, 98%, 41%, 1.00)" stroke="none" transform="rotate(45, 666.6666666666667, 266.6666666666667)"></rect><rect width="8.947368421052632" height="8.947368421052632" x="706.6374269005848" y="262.1929824561404" fill="hsla(353, 98%, 41%, 1.00)" stroke="none" transform="rotate(45, 711.1111111111112, 266.6666666666667)"></rect><rect width="8.947368421052632" height="8.947368421052632" x="751.0818713450293" y="262.1929824561404" fill="hsla(353, 98%, 41%, 1.00)" stroke="none" transform="rotate(45, 755.5555555555557, 266.6666666666667)"></rect><rect width="8.947368421052632" height="8.947368421052632" x="795.5263157894738" y="262.1929824561404" fill="hsla(353, 98%, 41%, 1.00)" stroke="none" transform="rotate(45, 800.0000000000001, 266.6666666666667)"></rect><rect width="8.947368421052632" height="8.947368421052632" x="-4.473684210526316" y="306.63742690058484" fill="hsla(353, 98%, 41%, 1.00)" stroke="none" transform="rotate(45, 0, 311.11111111111114)"></rect><rect width="8.947368421052632" height="8.947368421052632" x="39.97076023391813" y="306.63742690058484" fill="hsla(353, 98%, 41%, 1.00)" stroke="none" transform="rotate(45, 44.44444444444444, 311.11111111111114)"></rect><rect width="8.947368421052632" height="8.947368421052632" x="84.41520467836257" y="306.63742690058484" fill="hsla(353, 98%, 41%, 1.00)" stroke="none" transform="rotate(45, 88.88888888888889, 311.11111111111114)"></rect><rect width="8.947368421052632" height="8.947368421052632" x="128.85964912280699" y="306.63742690058484" fill="hsla(353, 98%, 41%, 1.00)" stroke="none" transform="rotate(45, 133.33333333333331, 311.11111111111114)"></rect><rect width="8.947368421052632" height="8.947368421052632" x="173.30409356725144" y="306.63742690058484" fill="hsla(353, 98%, 41%, 1.00)" stroke="none" transform="rotate(45, 177.77777777777777, 311.11111111111114)"></rect><rect width="8.947368421052632" height="8.947368421052632" x="217.7485380116959" y="306.63742690058484" fill="hsla(353, 98%, 41%, 1.00)" stroke="none" transform="rotate(45, 222.22222222222223, 311.11111111111114)"></rect><rect width="8.947368421052632" height="8.947368421052632" x="262.1929824561404" y="306.63742690058484" fill="hsla(353, 98%, 41%, 1.00)" stroke="none" transform="rotate(45, 266.6666666666667, 311.11111111111114)"></rect><rect width="8.947368421052632" height="8.947368421052632" x="306.63742690058484" y="306.63742690058484" fill="hsla(353, 98%, 41%, 1.00)" stroke="none" transform="rotate(45, 311.11111111111114, 311.11111111111114)"></rect><rect width="8.947368421052632" height="8.947368421052632" x="351.0818713450293" y="306.63742690058484" fill="hsla(353, 98%, 41%, 1.00)" stroke="none" transform="rotate(45, 355.5555555555556, 311.11111111111114)"></rect><rect width="8.947368421052632" height="8.947368421052632" x="395.52631578947376" y="306.63742690058484" fill="hsla(353, 98%, 41%, 1.00)" stroke="none" transform="rotate(45, 400.00000000000006, 311.11111111111114)"></rect><rect width="8.947368421052632" height="8.947368421052632" x="439.9707602339182" y="306.63742690058484" fill="hsla(353, 98%, 41%, 1.00)" stroke="none" transform="rotate(45, 444.4444444444445, 311.11111111111114)"></rect><rect width="8.947368421052632" height="8.947368421052632" x="484.41520467836267" y="306.63742690058484" fill="hsla(353, 98%, 41%, 1.00)" stroke="none" transform="rotate(45, 488.88888888888897, 311.11111111111114)"></rect><rect width="8.947368421052632" height="8.947368421052632" x="528.859649122807" y="306.63742690058484" fill="hsla(353, 98%, 41%, 1.00)" stroke="none" transform="rotate(45, 533.3333333333334, 311.11111111111114)"></rect><rect width="8.947368421052632" height="8.947368421052632" x="573.3040935672515" y="306.63742690058484" fill="hsla(353, 98%, 41%, 1.00)" stroke="none" transform="rotate(45, 577.7777777777778, 311.11111111111114)"></rect><rect width="8.947368421052632" height="8.947368421052632" x="617.7485380116959" y="306.63742690058484" fill="hsla(353, 98%, 41%, 1.00)" stroke="none" transform="rotate(45, 622.2222222222223, 311.11111111111114)"></rect><rect width="8.947368421052632" height="8.947368421052632" x="662.1929824561404" y="306.63742690058484" fill="hsla(353, 98%, 41%, 1.00)" stroke="none" transform="rotate(45, 666.6666666666667, 311.11111111111114)"></rect><rect width="8.947368421052632" height="8.947368421052632" x="706.6374269005848" y="306.63742690058484" fill="hsla(353, 98%, 41%, 1.00)" stroke="none" transform="rotate(45, 711.1111111111112, 311.11111111111114)"></rect><rect width="8.947368421052632" height="8.947368421052632" x="751.0818713450293" y="306.63742690058484" fill="hsla(353, 98%, 41%, 1.00)" stroke="none" transform="rotate(45, 755.5555555555557, 311.11111111111114)"></rect><rect width="8.947368421052632" height="8.947368421052632" x="795.5263157894738" y="306.63742690058484" fill="hsla(353, 98%, 41%, 1.00)" stroke="none" transform="rotate(45, 800.0000000000001, 311.11111111111114)"></rect><rect width="8.947368421052632" height="8.947368421052632" x="-4.473684210526316" y="351.0818713450293" fill="hsla(353, 98%, 41%, 1.00)" stroke="none" transform="rotate(45, 0, 355.5555555555556)"></rect><rect width="8.947368421052632" height="8.947368421052632" x="39.97076023391813" y="351.0818713450293" fill="hsla(353, 98%, 41%, 1.00)" stroke="none" transform="rotate(45, 44.44444444444444, 355.5555555555556)"></rect><rect width="8.947368421052632" height="8.947368421052632" x="84.41520467836257" y="351.0818713450293" fill="hsla(353, 98%, 41%, 1.00)" stroke="none" transform="rotate(45, 88.88888888888889, 355.5555555555556)"></rect><rect width="8.947368421052632" height="8.947368421052632" x="128.85964912280699" y="351.0818713450293" fill="hsla(353, 98%, 41%, 1.00)" stroke="none" transform="rotate(45, 133.33333333333331, 355.5555555555556)"></rect><rect width="8.947368421052632" height="8.947368421052632" x="173.30409356725144" y="351.0818713450293" fill="hsla(353, 98%, 41%, 1.00)" stroke="none" transform="rotate(45, 177.77777777777777, 355.5555555555556)"></rect><rect width="8.947368421052632" height="8.947368421052632" x="217.7485380116959" y="351.0818713450293" fill="hsla(353, 98%, 41%, 1.00)" stroke="none" transform="rotate(45, 222.22222222222223, 355.5555555555556)"></rect><rect width="8.947368421052632" height="8.947368421052632" x="262.1929824561404" y="351.0818713450293" fill="hsla(353, 98%, 41%, 1.00)" stroke="none" transform="rotate(45, 266.6666666666667, 355.5555555555556)"></rect><rect width="8.947368421052632" height="8.947368421052632" x="306.63742690058484" y="351.0818713450293" fill="hsla(353, 98%, 41%, 1.00)" stroke="none" transform="rotate(45, 311.11111111111114, 355.5555555555556)"></rect><rect width="8.947368421052632" height="8.947368421052632" x="351.0818713450293" y="351.0818713450293" fill="hsla(353, 98%, 41%, 1.00)" stroke="none" transform="rotate(45, 355.5555555555556, 355.5555555555556)"></rect><rect width="8.947368421052632" height="8.947368421052632" x="395.52631578947376" y="351.0818713450293" fill="hsla(353, 98%, 41%, 1.00)" stroke="none" transform="rotate(45, 400.00000000000006, 355.5555555555556)"></rect><rect width="8.947368421052632" height="8.947368421052632" x="439.9707602339182" y="351.0818713450293" fill="hsla(353, 98%, 41%, 1.00)" stroke="none" transform="rotate(45, 444.4444444444445, 355.5555555555556)"></rect><rect width="8.947368421052632" height="8.947368421052632" x="484.41520467836267" y="351.0818713450293" fill="hsla(353, 98%, 41%, 1.00)" stroke="none" transform="rotate(45, 488.88888888888897, 355.5555555555556)"></rect><rect width="8.947368421052632" height="8.947368421052632" x="528.859649122807" y="351.0818713450293" fill="hsla(353, 98%, 41%, 1.00)" stroke="none" transform="rotate(45, 533.3333333333334, 355.5555555555556)"></rect><rect width="8.947368421052632" height="8.947368421052632" x="573.3040935672515" y="351.0818713450293" fill="hsla(353, 98%, 41%, 1.00)" stroke="none" transform="rotate(45, 577.7777777777778, 355.5555555555556)"></rect><rect width="8.947368421052632" height="8.947368421052632" x="617.7485380116959" y="351.0818713450293" fill="hsla(353, 98%, 41%, 1.00)" stroke="none" transform="rotate(45, 622.2222222222223, 355.5555555555556)"></rect><rect width="8.947368421052632" height="8.947368421052632" x="662.1929824561404" y="351.0818713450293" fill="hsla(353, 98%, 41%, 1.00)" stroke="none" transform="rotate(45, 666.6666666666667, 355.5555555555556)"></rect><rect width="8.947368421052632" height="8.947368421052632" x="706.6374269005848" y="351.0818713450293" fill="hsla(353, 98%, 41%, 1.00)" stroke="none" transform="rotate(45, 711.1111111111112, 355.5555555555556)"></rect><rect width="8.947368421052632" height="8.947368421052632" x="751.0818713450293" y="351.0818713450293" fill="hsla(353, 98%, 41%, 1.00)" stroke="none" transform="rotate(45, 755.5555555555557, 355.5555555555556)"></rect><rect width="8.947368421052632" height="8.947368421052632" x="795.5263157894738" y="351.0818713450293" fill="hsla(353, 98%, 41%, 1.00)" stroke="none" transform="rotate(45, 800.0000000000001, 355.5555555555556)"></rect><rect width="8.947368421052632" height="8.947368421052632" x="-4.473684210526316" y="395.52631578947376" fill="hsla(353, 98%, 41%, 1.00)" stroke="none" transform="rotate(45, 0, 400.00000000000006)"></rect><rect width="8.947368421052632" height="8.947368421052632" x="39.97076023391813" y="395.52631578947376" fill="hsla(353, 98%, 41%, 1.00)" stroke="none" transform="rotate(45, 44.44444444444444, 400.00000000000006)"></rect><rect width="8.947368421052632" height="8.947368421052632" x="84.41520467836257" y="395.52631578947376" fill="hsla(353, 98%, 41%, 1.00)" stroke="none" transform="rotate(45, 88.88888888888889, 400.00000000000006)"></rect><rect width="8.947368421052632" height="8.947368421052632" x="128.85964912280699" y="395.52631578947376" fill="hsla(353, 98%, 41%, 1.00)" stroke="none" transform="rotate(45, 133.33333333333331, 400.00000000000006)"></rect><rect width="8.947368421052632" height="8.947368421052632" x="173.30409356725144" y="395.52631578947376" fill="hsla(353, 98%, 41%, 1.00)" stroke="none" transform="rotate(45, 177.77777777777777, 400.00000000000006)"></rect><rect width="8.947368421052632" height="8.947368421052632" x="217.7485380116959" y="395.52631578947376" fill="hsla(353, 98%, 41%, 1.00)" stroke="none" transform="rotate(45, 222.22222222222223, 400.00000000000006)"></rect><rect width="8.947368421052632" height="8.947368421052632" x="262.1929824561404" y="395.52631578947376" fill="hsla(353, 98%, 41%, 1.00)" stroke="none" transform="rotate(45, 266.6666666666667, 400.00000000000006)"></rect><rect width="8.947368421052632" height="8.947368421052632" x="306.63742690058484" y="395.52631578947376" fill="hsla(353, 98%, 41%, 1.00)" stroke="none" transform="rotate(45, 311.11111111111114, 400.00000000000006)"></rect><rect width="8.947368421052632" height="8.947368421052632" x="351.0818713450293" y="395.52631578947376" fill="hsla(353, 98%, 41%, 1.00)" stroke="none" transform="rotate(45, 355.5555555555556, 400.00000000000006)"></rect><rect width="8.947368421052632" height="8.947368421052632" x="395.52631578947376" y="395.52631578947376" fill="hsla(353, 98%, 41%, 1.00)" stroke="none" transform="rotate(45, 400.00000000000006, 400.00000000000006)"></rect><rect width="8.947368421052632" height="8.947368421052632" x="439.9707602339182" y="395.52631578947376" fill="hsla(353, 98%, 41%, 1.00)" stroke="none" transform="rotate(45, 444.4444444444445, 400.00000000000006)"></rect><rect width="8.947368421052632" height="8.947368421052632" x="484.41520467836267" y="395.52631578947376" fill="hsla(353, 98%, 41%, 1.00)" stroke="none" transform="rotate(45, 488.88888888888897, 400.00000000000006)"></rect><rect width="8.947368421052632" height="8.947368421052632" x="528.859649122807" y="395.52631578947376" fill="hsla(353, 98%, 41%, 1.00)" stroke="none" transform="rotate(45, 533.3333333333334, 400.00000000000006)"></rect><rect width="8.947368421052632" height="8.947368421052632" x="573.3040935672515" y="395.52631578947376" fill="hsla(353, 98%, 41%, 1.00)" stroke="none" transform="rotate(45, 577.7777777777778, 400.00000000000006)"></rect><rect width="8.947368421052632" height="8.947368421052632" x="617.7485380116959" y="395.52631578947376" fill="hsla(353, 98%, 41%, 1.00)" stroke="none" transform="rotate(45, 622.2222222222223, 400.00000000000006)"></rect><rect width="8.947368421052632" height="8.947368421052632" x="662.1929824561404" y="395.52631578947376" fill="hsla(353, 98%, 41%, 1.00)" stroke="none" transform="rotate(45, 666.6666666666667, 400.00000000000006)"></rect><rect width="8.947368421052632" height="8.947368421052632" x="706.6374269005848" y="395.52631578947376" fill="hsla(353, 98%, 41%, 1.00)" stroke="none" transform="rotate(45, 711.1111111111112, 400.00000000000006)"></rect><rect width="8.947368421052632" height="8.947368421052632" x="751.0818713450293" y="395.52631578947376" fill="hsla(353, 98%, 41%, 1.00)" stroke="none" transform="rotate(45, 755.5555555555557, 400.00000000000006)"></rect><rect width="8.947368421052632" height="8.947368421052632" x="795.5263157894738" y="395.52631578947376" fill="hsla(353, 98%, 41%, 1.00)" stroke="none" transform="rotate(45, 800.0000000000001, 400.00000000000006)"></rect><rect width="8.947368421052632" height="8.947368421052632" x="-4.473684210526316" y="439.9707602339182" fill="hsla(353, 98%, 41%, 1.00)" stroke="none" transform="rotate(45, 0, 444.4444444444445)"></rect><rect width="8.947368421052632" height="8.947368421052632" x="39.97076023391813" y="439.9707602339182" fill="hsla(353, 98%, 41%, 1.00)" stroke="none" transform="rotate(45, 44.44444444444444, 444.4444444444445)"></rect><rect width="8.947368421052632" height="8.947368421052632" x="84.41520467836257" y="439.9707602339182" fill="hsla(353, 98%, 41%, 1.00)" stroke="none" transform="rotate(45, 88.88888888888889, 444.4444444444445)"></rect><rect width="8.947368421052632" height="8.947368421052632" x="128.85964912280699" y="439.9707602339182" fill="hsla(353, 98%, 41%, 1.00)" stroke="none" transform="rotate(45, 133.33333333333331, 444.4444444444445)"></rect><rect width="8.947368421052632" height="8.947368421052632" x="173.30409356725144" y="439.9707602339182" fill="hsla(353, 98%, 41%, 1.00)" stroke="none" transform="rotate(45, 177.77777777777777, 444.4444444444445)"></rect><rect width="8.947368421052632" height="8.947368421052632" x="217.7485380116959" y="439.9707602339182" fill="hsla(353, 98%, 41%, 1.00)" stroke="none" transform="rotate(45, 222.22222222222223, 444.4444444444445)"></rect><rect width="8.947368421052632" height="8.947368421052632" x="262.1929824561404" y="439.9707602339182" fill="hsla(353, 98%, 41%, 1.00)" stroke="none" transform="rotate(45, 266.6666666666667, 444.4444444444445)"></rect><rect width="8.947368421052632" height="8.947368421052632" x="306.63742690058484" y="439.9707602339182" fill="hsla(353, 98%, 41%, 1.00)" stroke="none" transform="rotate(45, 311.11111111111114, 444.4444444444445)"></rect><rect width="8.947368421052632" height="8.947368421052632" x="351.0818713450293" y="439.9707602339182" fill="hsla(353, 98%, 41%, 1.00)" stroke="none" transform="rotate(45, 355.5555555555556, 444.4444444444445)"></rect><rect width="8.947368421052632" height="8.947368421052632" x="395.52631578947376" y="439.9707602339182" fill="hsla(353, 98%, 41%, 1.00)" stroke="none" transform="rotate(45, 400.00000000000006, 444.4444444444445)"></rect><rect width="8.947368421052632" height="8.947368421052632" x="439.9707602339182" y="439.9707602339182" fill="hsla(353, 98%, 41%, 1.00)" stroke="none" transform="rotate(45, 444.4444444444445, 444.4444444444445)"></rect><rect width="8.947368421052632" height="8.947368421052632" x="484.41520467836267" y="439.9707602339182" fill="hsla(353, 98%, 41%, 1.00)" stroke="none" transform="rotate(45, 488.88888888888897, 444.4444444444445)"></rect><rect width="8.947368421052632" height="8.947368421052632" x="528.859649122807" y="439.9707602339182" fill="hsla(353, 98%, 41%, 1.00)" stroke="none" transform="rotate(45, 533.3333333333334, 444.4444444444445)"></rect><rect width="8.947368421052632" height="8.947368421052632" x="573.3040935672515" y="439.9707602339182" fill="hsla(353, 98%, 41%, 1.00)" stroke="none" transform="rotate(45, 577.7777777777778, 444.4444444444445)"></rect><rect width="8.947368421052632" height="8.947368421052632" x="617.7485380116959" y="439.9707602339182" fill="hsla(353, 98%, 41%, 1.00)" stroke="none" transform="rotate(45, 622.2222222222223, 444.4444444444445)"></rect><rect width="8.947368421052632" height="8.947368421052632" x="662.1929824561404" y="439.9707602339182" fill="hsla(353, 98%, 41%, 1.00)" stroke="none" transform="rotate(45, 666.6666666666667, 444.4444444444445)"></rect><rect width="8.947368421052632" height="8.947368421052632" x="706.6374269005848" y="439.9707602339182" fill="hsla(353, 98%, 41%, 1.00)" stroke="none" transform="rotate(45, 711.1111111111112, 444.4444444444445)"></rect><rect width="8.947368421052632" height="8.947368421052632" x="751.0818713450293" y="439.9707602339182" fill="hsla(353, 98%, 41%, 1.00)" stroke="none" transform="rotate(45, 755.5555555555557, 444.4444444444445)"></rect><rect width="8.947368421052632" height="8.947368421052632" x="795.5263157894738" y="439.9707602339182" fill="hsla(353, 98%, 41%, 1.00)" stroke="none" transform="rotate(45, 800.0000000000001, 444.4444444444445)"></rect><rect width="8.947368421052632" height="8.947368421052632" x="-4.473684210526316" y="484.41520467836267" fill="hsla(353, 98%, 41%, 1.00)" stroke="none" transform="rotate(45, 0, 488.88888888888897)"></rect><rect width="8.947368421052632" height="8.947368421052632" x="39.97076023391813" y="484.41520467836267" fill="hsla(353, 98%, 41%, 1.00)" stroke="none" transform="rotate(45, 44.44444444444444, 488.88888888888897)"></rect><rect width="8.947368421052632" height="8.947368421052632" x="84.41520467836257" y="484.41520467836267" fill="hsla(353, 98%, 41%, 1.00)" stroke="none" transform="rotate(45, 88.88888888888889, 488.88888888888897)"></rect><rect width="8.947368421052632" height="8.947368421052632" x="128.85964912280699" y="484.41520467836267" fill="hsla(353, 98%, 41%, 1.00)" stroke="none" transform="rotate(45, 133.33333333333331, 488.88888888888897)"></rect><rect width="8.947368421052632" height="8.947368421052632" x="173.30409356725144" y="484.41520467836267" fill="hsla(353, 98%, 41%, 1.00)" stroke="none" transform="rotate(45, 177.77777777777777, 488.88888888888897)"></rect><rect width="8.947368421052632" height="8.947368421052632" x="217.7485380116959" y="484.41520467836267" fill="hsla(353, 98%, 41%, 1.00)" stroke="none" transform="rotate(45, 222.22222222222223, 488.88888888888897)"></rect><rect width="8.947368421052632" height="8.947368421052632" x="262.1929824561404" y="484.41520467836267" fill="hsla(353, 98%, 41%, 1.00)" stroke="none" transform="rotate(45, 266.6666666666667, 488.88888888888897)"></rect><rect width="8.947368421052632" height="8.947368421052632" x="306.63742690058484" y="484.41520467836267" fill="hsla(353, 98%, 41%, 1.00)" stroke="none" transform="rotate(45, 311.11111111111114, 488.88888888888897)"></rect><rect width="8.947368421052632" height="8.947368421052632" x="351.0818713450293" y="484.41520467836267" fill="hsla(353, 98%, 41%, 1.00)" stroke="none" transform="rotate(45, 355.5555555555556, 488.88888888888897)"></rect><rect width="8.947368421052632" height="8.947368421052632" x="395.52631578947376" y="484.41520467836267" fill="hsla(353, 98%, 41%, 1.00)" stroke="none" transform="rotate(45, 400.00000000000006, 488.88888888888897)"></rect><rect width="8.947368421052632" height="8.947368421052632" x="439.9707602339182" y="484.41520467836267" fill="hsla(353, 98%, 41%, 1.00)" stroke="none" transform="rotate(45, 444.4444444444445, 488.88888888888897)"></rect><rect width="8.947368421052632" height="8.947368421052632" x="484.41520467836267" y="484.41520467836267" fill="hsla(353, 98%, 41%, 1.00)" stroke="none" transform="rotate(45, 488.88888888888897, 488.88888888888897)"></rect><rect width="8.947368421052632" height="8.947368421052632" x="528.859649122807" y="484.41520467836267" fill="hsla(353, 98%, 41%, 1.00)" stroke="none" transform="rotate(45, 533.3333333333334, 488.88888888888897)"></rect><rect width="8.947368421052632" height="8.947368421052632" x="573.3040935672515" y="484.41520467836267" fill="hsla(353, 98%, 41%, 1.00)" stroke="none" transform="rotate(45, 577.7777777777778, 488.88888888888897)"></rect><rect width="8.947368421052632" height="8.947368421052632" x="617.7485380116959" y="484.41520467836267" fill="hsla(353, 98%, 41%, 1.00)" stroke="none" transform="rotate(45, 622.2222222222223, 488.88888888888897)"></rect><rect width="8.947368421052632" height="8.947368421052632" x="662.1929824561404" y="484.41520467836267" fill="hsla(353, 98%, 41%, 1.00)" stroke="none" transform="rotate(45, 666.6666666666667, 488.88888888888897)"></rect><rect width="8.947368421052632" height="8.947368421052632" x="706.6374269005848" y="484.41520467836267" fill="hsla(353, 98%, 41%, 1.00)" stroke="none" transform="rotate(45, 711.1111111111112, 488.88888888888897)"></rect><rect width="8.947368421052632" height="8.947368421052632" x="751.0818713450293" y="484.41520467836267" fill="hsla(353, 98%, 41%, 1.00)" stroke="none" transform="rotate(45, 755.5555555555557, 488.88888888888897)"></rect><rect width="8.947368421052632" height="8.947368421052632" x="795.5263157894738" y="484.41520467836267" fill="hsla(353, 98%, 41%, 1.00)" stroke="none" transform="rotate(45, 800.0000000000001, 488.88888888888897)"></rect><rect width="8.947368421052632" height="8.947368421052632" x="-4.473684210526316" y="528.859649122807" fill="hsla(353, 98%, 41%, 1.00)" stroke="none" transform="rotate(45, 0, 533.3333333333334)"></rect><rect width="8.947368421052632" height="8.947368421052632" x="39.97076023391813" y="528.859649122807" fill="hsla(353, 98%, 41%, 1.00)" stroke="none" transform="rotate(45, 44.44444444444444, 533.3333333333334)"></rect><rect width="8.947368421052632" height="8.947368421052632" x="84.41520467836257" y="528.859649122807" fill="hsla(353, 98%, 41%, 1.00)" stroke="none" transform="rotate(45, 88.88888888888889, 533.3333333333334)"></rect><rect width="8.947368421052632" height="8.947368421052632" x="128.85964912280699" y="528.859649122807" fill="hsla(353, 98%, 41%, 1.00)" stroke="none" transform="rotate(45, 133.33333333333331, 533.3333333333334)"></rect><rect width="8.947368421052632" height="8.947368421052632" x="173.30409356725144" y="528.859649122807" fill="hsla(353, 98%, 41%, 1.00)" stroke="none" transform="rotate(45, 177.77777777777777, 533.3333333333334)"></rect><rect width="8.947368421052632" height="8.947368421052632" x="217.7485380116959" y="528.859649122807" fill="hsla(353, 98%, 41%, 1.00)" stroke="none" transform="rotate(45, 222.22222222222223, 533.3333333333334)"></rect><rect width="8.947368421052632" height="8.947368421052632" x="262.1929824561404" y="528.859649122807" fill="hsla(353, 98%, 41%, 1.00)" stroke="none" transform="rotate(45, 266.6666666666667, 533.3333333333334)"></rect><rect width="8.947368421052632" height="8.947368421052632" x="306.63742690058484" y="528.859649122807" fill="hsla(353, 98%, 41%, 1.00)" stroke="none" transform="rotate(45, 311.11111111111114, 533.3333333333334)"></rect><rect width="8.947368421052632" height="8.947368421052632" x="351.0818713450293" y="528.859649122807" fill="hsla(353, 98%, 41%, 1.00)" stroke="none" transform="rotate(45, 355.5555555555556, 533.3333333333334)"></rect><rect width="8.947368421052632" height="8.947368421052632" x="395.52631578947376" y="528.859649122807" fill="hsla(353, 98%, 41%, 1.00)" stroke="none" transform="rotate(45, 400.00000000000006, 533.3333333333334)"></rect><rect width="8.947368421052632" height="8.947368421052632" x="439.9707602339182" y="528.859649122807" fill="hsla(353, 98%, 41%, 1.00)" stroke="none" transform="rotate(45, 444.4444444444445, 533.3333333333334)"></rect><rect width="8.947368421052632" height="8.947368421052632" x="484.41520467836267" y="528.859649122807" fill="hsla(353, 98%, 41%, 1.00)" stroke="none" transform="rotate(45, 488.88888888888897, 533.3333333333334)"></rect><rect width="8.947368421052632" height="8.947368421052632" x="528.859649122807" y="528.859649122807" fill="hsla(353, 98%, 41%, 1.00)" stroke="none" transform="rotate(45, 533.3333333333334, 533.3333333333334)"></rect><rect width="8.947368421052632" height="8.947368421052632" x="573.3040935672515" y="528.859649122807" fill="hsla(353, 98%, 41%, 1.00)" stroke="none" transform="rotate(45, 577.7777777777778, 533.3333333333334)"></rect><rect width="8.947368421052632" height="8.947368421052632" x="617.7485380116959" y="528.859649122807" fill="hsla(353, 98%, 41%, 1.00)" stroke="none" transform="rotate(45, 622.2222222222223, 533.3333333333334)"></rect><rect width="8.947368421052632" height="8.947368421052632" x="662.1929824561404" y="528.859649122807" fill="hsla(353, 98%, 41%, 1.00)" stroke="none" transform="rotate(45, 666.6666666666667, 533.3333333333334)"></rect><rect width="8.947368421052632" height="8.947368421052632" x="706.6374269005848" y="528.859649122807" fill="hsla(353, 98%, 41%, 1.00)" stroke="none" transform="rotate(45, 711.1111111111112, 533.3333333333334)"></rect><rect width="8.947368421052632" height="8.947368421052632" x="751.0818713450293" y="528.859649122807" fill="hsla(353, 98%, 41%, 1.00)" stroke="none" transform="rotate(45, 755.5555555555557, 533.3333333333334)"></rect><rect width="8.947368421052632" height="8.947368421052632" x="795.5263157894738" y="528.859649122807" fill="hsla(353, 98%, 41%, 1.00)" stroke="none" transform="rotate(45, 800.0000000000001, 533.3333333333334)"></rect><rect width="8.947368421052632" height="8.947368421052632" x="-4.473684210526316" y="573.3040935672515" fill="hsla(353, 98%, 41%, 1.00)" stroke="none" transform="rotate(45, 0, 577.7777777777778)"></rect><rect width="8.947368421052632" height="8.947368421052632" x="39.97076023391813" y="573.3040935672515" fill="hsla(353, 98%, 41%, 1.00)" stroke="none" transform="rotate(45, 44.44444444444444, 577.7777777777778)"></rect><rect width="8.947368421052632" height="8.947368421052632" x="84.41520467836257" y="573.3040935672515" fill="hsla(353, 98%, 41%, 1.00)" stroke="none" transform="rotate(45, 88.88888888888889, 577.7777777777778)"></rect><rect width="8.947368421052632" height="8.947368421052632" x="128.85964912280699" y="573.3040935672515" fill="hsla(353, 98%, 41%, 1.00)" stroke="none" transform="rotate(45, 133.33333333333331, 577.7777777777778)"></rect><rect width="8.947368421052632" height="8.947368421052632" x="173.30409356725144" y="573.3040935672515" fill="hsla(353, 98%, 41%, 1.00)" stroke="none" transform="rotate(45, 177.77777777777777, 577.7777777777778)"></rect><rect width="8.947368421052632" height="8.947368421052632" x="217.7485380116959" y="573.3040935672515" fill="hsla(353, 98%, 41%, 1.00)" stroke="none" transform="rotate(45, 222.22222222222223, 577.7777777777778)"></rect><rect width="8.947368421052632" height="8.947368421052632" x="262.1929824561404" y="573.3040935672515" fill="hsla(353, 98%, 41%, 1.00)" stroke="none" transform="rotate(45, 266.6666666666667, 577.7777777777778)"></rect><rect width="8.947368421052632" height="8.947368421052632" x="306.63742690058484" y="573.3040935672515" fill="hsla(353, 98%, 41%, 1.00)" stroke="none" transform="rotate(45, 311.11111111111114, 577.7777777777778)"></rect><rect width="8.947368421052632" height="8.947368421052632" x="351.0818713450293" y="573.3040935672515" fill="hsla(353, 98%, 41%, 1.00)" stroke="none" transform="rotate(45, 355.5555555555556, 577.7777777777778)"></rect><rect width="8.947368421052632" height="8.947368421052632" x="395.52631578947376" y="573.3040935672515" fill="hsla(353, 98%, 41%, 1.00)" stroke="none" transform="rotate(45, 400.00000000000006, 577.7777777777778)"></rect><rect width="8.947368421052632" height="8.947368421052632" x="439.9707602339182" y="573.3040935672515" fill="hsla(353, 98%, 41%, 1.00)" stroke="none" transform="rotate(45, 444.4444444444445, 577.7777777777778)"></rect><rect width="8.947368421052632" height="8.947368421052632" x="484.41520467836267" y="573.3040935672515" fill="hsla(353, 98%, 41%, 1.00)" stroke="none" transform="rotate(45, 488.88888888888897, 577.7777777777778)"></rect><rect width="8.947368421052632" height="8.947368421052632" x="528.859649122807" y="573.3040935672515" fill="hsla(353, 98%, 41%, 1.00)" stroke="none" transform="rotate(45, 533.3333333333334, 577.7777777777778)"></rect><rect width="8.947368421052632" height="8.947368421052632" x="573.3040935672515" y="573.3040935672515" fill="hsla(353, 98%, 41%, 1.00)" stroke="none" transform="rotate(45, 577.7777777777778, 577.7777777777778)"></rect><rect width="8.947368421052632" height="8.947368421052632" x="617.7485380116959" y="573.3040935672515" fill="hsla(353, 98%, 41%, 1.00)" stroke="none" transform="rotate(45, 622.2222222222223, 577.7777777777778)"></rect><rect width="8.947368421052632" height="8.947368421052632" x="662.1929824561404" y="573.3040935672515" fill="hsla(353, 98%, 41%, 1.00)" stroke="none" transform="rotate(45, 666.6666666666667, 577.7777777777778)"></rect><rect width="8.947368421052632" height="8.947368421052632" x="706.6374269005848" y="573.3040935672515" fill="hsla(353, 98%, 41%, 1.00)" stroke="none" transform="rotate(45, 711.1111111111112, 577.7777777777778)"></rect><rect width="8.947368421052632" height="8.947368421052632" x="751.0818713450293" y="573.3040935672515" fill="hsla(353, 98%, 41%, 1.00)" stroke="none" transform="rotate(45, 755.5555555555557, 577.7777777777778)"></rect><rect width="8.947368421052632" height="8.947368421052632" x="795.5263157894738" y="573.3040935672515" fill="hsla(353, 98%, 41%, 1.00)" stroke="none" transform="rotate(45, 800.0000000000001, 577.7777777777778)"></rect><rect width="8.947368421052632" height="8.947368421052632" x="-4.473684210526316" y="617.7485380116959" fill="hsla(353, 98%, 41%, 1.00)" stroke="none" transform="rotate(45, 0, 622.2222222222223)"></rect><rect width="8.947368421052632" height="8.947368421052632" x="39.97076023391813" y="617.7485380116959" fill="hsla(353, 98%, 41%, 1.00)" stroke="none" transform="rotate(45, 44.44444444444444, 622.2222222222223)"></rect><rect width="8.947368421052632" height="8.947368421052632" x="84.41520467836257" y="617.7485380116959" fill="hsla(353, 98%, 41%, 1.00)" stroke="none" transform="rotate(45, 88.88888888888889, 622.2222222222223)"></rect><rect width="8.947368421052632" height="8.947368421052632" x="128.85964912280699" y="617.7485380116959" fill="hsla(353, 98%, 41%, 1.00)" stroke="none" transform="rotate(45, 133.33333333333331, 622.2222222222223)"></rect><rect width="8.947368421052632" height="8.947368421052632" x="173.30409356725144" y="617.7485380116959" fill="hsla(353, 98%, 41%, 1.00)" stroke="none" transform="rotate(45, 177.77777777777777, 622.2222222222223)"></rect><rect width="8.947368421052632" height="8.947368421052632" x="217.7485380116959" y="617.7485380116959" fill="hsla(353, 98%, 41%, 1.00)" stroke="none" transform="rotate(45, 222.22222222222223, 622.2222222222223)"></rect><rect width="8.947368421052632" height="8.947368421052632" x="262.1929824561404" y="617.7485380116959" fill="hsla(353, 98%, 41%, 1.00)" stroke="none" transform="rotate(45, 266.6666666666667, 622.2222222222223)"></rect><rect width="8.947368421052632" height="8.947368421052632" x="306.63742690058484" y="617.7485380116959" fill="hsla(353, 98%, 41%, 1.00)" stroke="none" transform="rotate(45, 311.11111111111114, 622.2222222222223)"></rect><rect width="8.947368421052632" height="8.947368421052632" x="351.0818713450293" y="617.7485380116959" fill="hsla(353, 98%, 41%, 1.00)" stroke="none" transform="rotate(45, 355.5555555555556, 622.2222222222223)"></rect><rect width="8.947368421052632" height="8.947368421052632" x="395.52631578947376" y="617.7485380116959" fill="hsla(353, 98%, 41%, 1.00)" stroke="none" transform="rotate(45, 400.00000000000006, 622.2222222222223)"></rect><rect width="8.947368421052632" height="8.947368421052632" x="439.9707602339182" y="617.7485380116959" fill="hsla(353, 98%, 41%, 1.00)" stroke="none" transform="rotate(45, 444.4444444444445, 622.2222222222223)"></rect><rect width="8.947368421052632" height="8.947368421052632" x="484.41520467836267" y="617.7485380116959" fill="hsla(353, 98%, 41%, 1.00)" stroke="none" transform="rotate(45, 488.88888888888897, 622.2222222222223)"></rect><rect width="8.947368421052632" height="8.947368421052632" x="528.859649122807" y="617.7485380116959" fill="hsla(353, 98%, 41%, 1.00)" stroke="none" transform="rotate(45, 533.3333333333334, 622.2222222222223)"></rect><rect width="8.947368421052632" height="8.947368421052632" x="573.3040935672515" y="617.7485380116959" fill="hsla(353, 98%, 41%, 1.00)" stroke="none" transform="rotate(45, 577.7777777777778, 622.2222222222223)"></rect><rect width="8.947368421052632" height="8.947368421052632" x="617.7485380116959" y="617.7485380116959" fill="hsla(353, 98%, 41%, 1.00)" stroke="none" transform="rotate(45, 622.2222222222223, 622.2222222222223)"></rect><rect width="8.947368421052632" height="8.947368421052632" x="662.1929824561404" y="617.7485380116959" fill="hsla(353, 98%, 41%, 1.00)" stroke="none" transform="rotate(45, 666.6666666666667, 622.2222222222223)"></rect><rect width="8.947368421052632" height="8.947368421052632" x="706.6374269005848" y="617.7485380116959" fill="hsla(353, 98%, 41%, 1.00)" stroke="none" transform="rotate(45, 711.1111111111112, 622.2222222222223)"></rect><rect width="8.947368421052632" height="8.947368421052632" x="751.0818713450293" y="617.7485380116959" fill="hsla(353, 98%, 41%, 1.00)" stroke="none" transform="rotate(45, 755.5555555555557, 622.2222222222223)"></rect><rect width="8.947368421052632" height="8.947368421052632" x="795.5263157894738" y="617.7485380116959" fill="hsla(353, 98%, 41%, 1.00)" stroke="none" transform="rotate(45, 800.0000000000001, 622.2222222222223)"></rect><rect width="8.947368421052632" height="8.947368421052632" x="-4.473684210526316" y="662.1929824561404" fill="hsla(353, 98%, 41%, 1.00)" stroke="none" transform="rotate(45, 0, 666.6666666666667)"></rect><rect width="8.947368421052632" height="8.947368421052632" x="39.97076023391813" y="662.1929824561404" fill="hsla(353, 98%, 41%, 1.00)" stroke="none" transform="rotate(45, 44.44444444444444, 666.6666666666667)"></rect><rect width="8.947368421052632" height="8.947368421052632" x="84.41520467836257" y="662.1929824561404" fill="hsla(353, 98%, 41%, 1.00)" stroke="none" transform="rotate(45, 88.88888888888889, 666.6666666666667)"></rect><rect width="8.947368421052632" height="8.947368421052632" x="128.85964912280699" y="662.1929824561404" fill="hsla(353, 98%, 41%, 1.00)" stroke="none" transform="rotate(45, 133.33333333333331, 666.6666666666667)"></rect><rect width="8.947368421052632" height="8.947368421052632" x="173.30409356725144" y="662.1929824561404" fill="hsla(353, 98%, 41%, 1.00)" stroke="none" transform="rotate(45, 177.77777777777777, 666.6666666666667)"></rect><rect width="8.947368421052632" height="8.947368421052632" x="217.7485380116959" y="662.1929824561404" fill="hsla(353, 98%, 41%, 1.00)" stroke="none" transform="rotate(45, 222.22222222222223, 666.6666666666667)"></rect><rect width="8.947368421052632" height="8.947368421052632" x="262.1929824561404" y="662.1929824561404" fill="hsla(353, 98%, 41%, 1.00)" stroke="none" transform="rotate(45, 266.6666666666667, 666.6666666666667)"></rect><rect width="8.947368421052632" height="8.947368421052632" x="306.63742690058484" y="662.1929824561404" fill="hsla(353, 98%, 41%, 1.00)" stroke="none" transform="rotate(45, 311.11111111111114, 666.6666666666667)"></rect><rect width="8.947368421052632" height="8.947368421052632" x="351.0818713450293" y="662.1929824561404" fill="hsla(353, 98%, 41%, 1.00)" stroke="none" transform="rotate(45, 355.5555555555556, 666.6666666666667)"></rect><rect width="8.947368421052632" height="8.947368421052632" x="395.52631578947376" y="662.1929824561404" fill="hsla(353, 98%, 41%, 1.00)" stroke="none" transform="rotate(45, 400.00000000000006, 666.6666666666667)"></rect><rect width="8.947368421052632" height="8.947368421052632" x="439.9707602339182" y="662.1929824561404" fill="hsla(353, 98%, 41%, 1.00)" stroke="none" transform="rotate(45, 444.4444444444445, 666.6666666666667)"></rect><rect width="8.947368421052632" height="8.947368421052632" x="484.41520467836267" y="662.1929824561404" fill="hsla(353, 98%, 41%, 1.00)" stroke="none" transform="rotate(45, 488.88888888888897, 666.6666666666667)"></rect><rect width="8.947368421052632" height="8.947368421052632" x="528.859649122807" y="662.1929824561404" fill="hsla(353, 98%, 41%, 1.00)" stroke="none" transform="rotate(45, 533.3333333333334, 666.6666666666667)"></rect><rect width="8.947368421052632" height="8.947368421052632" x="573.3040935672515" y="662.1929824561404" fill="hsla(353, 98%, 41%, 1.00)" stroke="none" transform="rotate(45, 577.7777777777778, 666.6666666666667)"></rect><rect width="8.947368421052632" height="8.947368421052632" x="617.7485380116959" y="662.1929824561404" fill="hsla(353, 98%, 41%, 1.00)" stroke="none" transform="rotate(45, 622.2222222222223, 666.6666666666667)"></rect><rect width="8.947368421052632" height="8.947368421052632" x="662.1929824561404" y="662.1929824561404" fill="hsla(353, 98%, 41%, 1.00)" stroke="none" transform="rotate(45, 666.6666666666667, 666.6666666666667)"></rect><rect width="8.947368421052632" height="8.947368421052632" x="706.6374269005848" y="662.1929824561404" fill="hsla(353, 98%, 41%, 1.00)" stroke="none" transform="rotate(45, 711.1111111111112, 666.6666666666667)"></rect><rect width="8.947368421052632" height="8.947368421052632" x="751.0818713450293" y="662.1929824561404" fill="hsla(353, 98%, 41%, 1.00)" stroke="none" transform="rotate(45, 755.5555555555557, 666.6666666666667)"></rect><rect width="8.947368421052632" height="8.947368421052632" x="795.5263157894738" y="662.1929824561404" fill="hsla(353, 98%, 41%, 1.00)" stroke="none" transform="rotate(45, 800.0000000000001, 666.6666666666667)"></rect><rect width="8.947368421052632" height="8.947368421052632" x="-4.473684210526316" y="706.6374269005848" fill="hsla(353, 98%, 41%, 1.00)" stroke="none" transform="rotate(45, 0, 711.1111111111112)"></rect><rect width="8.947368421052632" height="8.947368421052632" x="39.97076023391813" y="706.6374269005848" fill="hsla(353, 98%, 41%, 1.00)" stroke="none" transform="rotate(45, 44.44444444444444, 711.1111111111112)"></rect><rect width="8.947368421052632" height="8.947368421052632" x="84.41520467836257" y="706.6374269005848" fill="hsla(353, 98%, 41%, 1.00)" stroke="none" transform="rotate(45, 88.88888888888889, 711.1111111111112)"></rect><rect width="8.947368421052632" height="8.947368421052632" x="128.85964912280699" y="706.6374269005848" fill="hsla(353, 98%, 41%, 1.00)" stroke="none" transform="rotate(45, 133.33333333333331, 711.1111111111112)"></rect><rect width="8.947368421052632" height="8.947368421052632" x="173.30409356725144" y="706.6374269005848" fill="hsla(353, 98%, 41%, 1.00)" stroke="none" transform="rotate(45, 177.77777777777777, 711.1111111111112)"></rect><rect width="8.947368421052632" height="8.947368421052632" x="217.7485380116959" y="706.6374269005848" fill="hsla(353, 98%, 41%, 1.00)" stroke="none" transform="rotate(45, 222.22222222222223, 711.1111111111112)"></rect><rect width="8.947368421052632" height="8.947368421052632" x="262.1929824561404" y="706.6374269005848" fill="hsla(353, 98%, 41%, 1.00)" stroke="none" transform="rotate(45, 266.6666666666667, 711.1111111111112)"></rect><rect width="8.947368421052632" height="8.947368421052632" x="306.63742690058484" y="706.6374269005848" fill="hsla(353, 98%, 41%, 1.00)" stroke="none" transform="rotate(45, 311.11111111111114, 711.1111111111112)"></rect><rect width="8.947368421052632" height="8.947368421052632" x="351.0818713450293" y="706.6374269005848" fill="hsla(353, 98%, 41%, 1.00)" stroke="none" transform="rotate(45, 355.5555555555556, 711.1111111111112)"></rect><rect width="8.947368421052632" height="8.947368421052632" x="395.52631578947376" y="706.6374269005848" fill="hsla(353, 98%, 41%, 1.00)" stroke="none" transform="rotate(45, 400.00000000000006, 711.1111111111112)"></rect><rect width="8.947368421052632" height="8.947368421052632" x="439.9707602339182" y="706.6374269005848" fill="hsla(353, 98%, 41%, 1.00)" stroke="none" transform="rotate(45, 444.4444444444445, 711.1111111111112)"></rect><rect width="8.947368421052632" height="8.947368421052632" x="484.41520467836267" y="706.6374269005848" fill="hsla(353, 98%, 41%, 1.00)" stroke="none" transform="rotate(45, 488.88888888888897, 711.1111111111112)"></rect><rect width="8.947368421052632" height="8.947368421052632" x="528.859649122807" y="706.6374269005848" fill="hsla(353, 98%, 41%, 1.00)" stroke="none" transform="rotate(45, 533.3333333333334, 711.1111111111112)"></rect><rect width="8.947368421052632" height="8.947368421052632" x="573.3040935672515" y="706.6374269005848" fill="hsla(353, 98%, 41%, 1.00)" stroke="none" transform="rotate(45, 577.7777777777778, 711.1111111111112)"></rect><rect width="8.947368421052632" height="8.947368421052632" x="617.7485380116959" y="706.6374269005848" fill="hsla(353, 98%, 41%, 1.00)" stroke="none" transform="rotate(45, 622.2222222222223, 711.1111111111112)"></rect><rect width="8.947368421052632" height="8.947368421052632" x="662.1929824561404" y="706.6374269005848" fill="hsla(353, 98%, 41%, 1.00)" stroke="none" transform="rotate(45, 666.6666666666667, 711.1111111111112)"></rect><rect width="8.947368421052632" height="8.947368421052632" x="706.6374269005848" y="706.6374269005848" fill="hsla(353, 98%, 41%, 1.00)" stroke="none" transform="rotate(45, 711.1111111111112, 711.1111111111112)"></rect><rect width="8.947368421052632" height="8.947368421052632" x="751.0818713450293" y="706.6374269005848" fill="hsla(353, 98%, 41%, 1.00)" stroke="none" transform="rotate(45, 755.5555555555557, 711.1111111111112)"></rect><rect width="8.947368421052632" height="8.947368421052632" x="795.5263157894738" y="706.6374269005848" fill="hsla(353, 98%, 41%, 1.00)" stroke="none" transform="rotate(45, 800.0000000000001, 711.1111111111112)"></rect><rect width="8.947368421052632" height="8.947368421052632" x="-4.473684210526316" y="751.0818713450293" fill="hsla(353, 98%, 41%, 1.00)" stroke="none" transform="rotate(45, 0, 755.5555555555557)"></rect><rect width="8.947368421052632" height="8.947368421052632" x="39.97076023391813" y="751.0818713450293" fill="hsla(353, 98%, 41%, 1.00)" stroke="none" transform="rotate(45, 44.44444444444444, 755.5555555555557)"></rect><rect width="8.947368421052632" height="8.947368421052632" x="84.41520467836257" y="751.0818713450293" fill="hsla(353, 98%, 41%, 1.00)" stroke="none" transform="rotate(45, 88.88888888888889, 755.5555555555557)"></rect><rect width="8.947368421052632" height="8.947368421052632" x="128.85964912280699" y="751.0818713450293" fill="hsla(353, 98%, 41%, 1.00)" stroke="none" transform="rotate(45, 133.33333333333331, 755.5555555555557)"></rect><rect width="8.947368421052632" height="8.947368421052632" x="173.30409356725144" y="751.0818713450293" fill="hsla(353, 98%, 41%, 1.00)" stroke="none" transform="rotate(45, 177.77777777777777, 755.5555555555557)"></rect><rect width="8.947368421052632" height="8.947368421052632" x="217.7485380116959" y="751.0818713450293" fill="hsla(353, 98%, 41%, 1.00)" stroke="none" transform="rotate(45, 222.22222222222223, 755.5555555555557)"></rect><rect width="8.947368421052632" height="8.947368421052632" x="262.1929824561404" y="751.0818713450293" fill="hsla(353, 98%, 41%, 1.00)" stroke="none" transform="rotate(45, 266.6666666666667, 755.5555555555557)"></rect><rect width="8.947368421052632" height="8.947368421052632" x="306.63742690058484" y="751.0818713450293" fill="hsla(353, 98%, 41%, 1.00)" stroke="none" transform="rotate(45, 311.11111111111114, 755.5555555555557)"></rect><rect width="8.947368421052632" height="8.947368421052632" x="351.0818713450293" y="751.0818713450293" fill="hsla(353, 98%, 41%, 1.00)" stroke="none" transform="rotate(45, 355.5555555555556, 755.5555555555557)"></rect><rect width="8.947368421052632" height="8.947368421052632" x="395.52631578947376" y="751.0818713450293" fill="hsla(353, 98%, 41%, 1.00)" stroke="none" transform="rotate(45, 400.00000000000006, 755.5555555555557)"></rect><rect width="8.947368421052632" height="8.947368421052632" x="439.9707602339182" y="751.0818713450293" fill="hsla(353, 98%, 41%, 1.00)" stroke="none" transform="rotate(45, 444.4444444444445, 755.5555555555557)"></rect><rect width="8.947368421052632" height="8.947368421052632" x="484.41520467836267" y="751.0818713450293" fill="hsla(353, 98%, 41%, 1.00)" stroke="none" transform="rotate(45, 488.88888888888897, 755.5555555555557)"></rect><rect width="8.947368421052632" height="8.947368421052632" x="528.859649122807" y="751.0818713450293" fill="hsla(353, 98%, 41%, 1.00)" stroke="none" transform="rotate(45, 533.3333333333334, 755.5555555555557)"></rect><rect width="8.947368421052632" height="8.947368421052632" x="573.3040935672515" y="751.0818713450293" fill="hsla(353, 98%, 41%, 1.00)" stroke="none" transform="rotate(45, 577.7777777777778, 755.5555555555557)"></rect><rect width="8.947368421052632" height="8.947368421052632" x="617.7485380116959" y="751.0818713450293" fill="hsla(353, 98%, 41%, 1.00)" stroke="none" transform="rotate(45, 622.2222222222223, 755.5555555555557)"></rect><rect width="8.947368421052632" height="8.947368421052632" x="662.1929824561404" y="751.0818713450293" fill="hsla(353, 98%, 41%, 1.00)" stroke="none" transform="rotate(45, 666.6666666666667, 755.5555555555557)"></rect><rect width="8.947368421052632" height="8.947368421052632" x="706.6374269005848" y="751.0818713450293" fill="hsla(353, 98%, 41%, 1.00)" stroke="none" transform="rotate(45, 711.1111111111112, 755.5555555555557)"></rect><rect width="8.947368421052632" height="8.947368421052632" x="751.0818713450293" y="751.0818713450293" fill="hsla(353, 98%, 41%, 1.00)" stroke="none" transform="rotate(45, 755.5555555555557, 755.5555555555557)"></rect><rect width="8.947368421052632" height="8.947368421052632" x="795.5263157894738" y="751.0818713450293" fill="hsla(353, 98%, 41%, 1.00)" stroke="none" transform="rotate(45, 800.0000000000001, 755.5555555555557)"></rect><rect width="8.947368421052632" height="8.947368421052632" x="-4.473684210526316" y="795.5263157894738" fill="hsla(353, 98%, 41%, 1.00)" stroke="none" transform="rotate(45, 0, 800.0000000000001)"></rect><rect width="8.947368421052632" height="8.947368421052632" x="39.97076023391813" y="795.5263157894738" fill="hsla(353, 98%, 41%, 1.00)" stroke="none" transform="rotate(45, 44.44444444444444, 800.0000000000001)"></rect><rect width="8.947368421052632" height="8.947368421052632" x="84.41520467836257" y="795.5263157894738" fill="hsla(353, 98%, 41%, 1.00)" stroke="none" transform="rotate(45, 88.88888888888889, 800.0000000000001)"></rect><rect width="8.947368421052632" height="8.947368421052632" x="128.85964912280699" y="795.5263157894738" fill="hsla(353, 98%, 41%, 1.00)" stroke="none" transform="rotate(45, 133.33333333333331, 800.0000000000001)"></rect><rect width="8.947368421052632" height="8.947368421052632" x="173.30409356725144" y="795.5263157894738" fill="hsla(353, 98%, 41%, 1.00)" stroke="none" transform="rotate(45, 177.77777777777777, 800.0000000000001)"></rect><rect width="8.947368421052632" height="8.947368421052632" x="217.7485380116959" y="795.5263157894738" fill="hsla(353, 98%, 41%, 1.00)" stroke="none" transform="rotate(45, 222.22222222222223, 800.0000000000001)"></rect><rect width="8.947368421052632" height="8.947368421052632" x="262.1929824561404" y="795.5263157894738" fill="hsla(353, 98%, 41%, 1.00)" stroke="none" transform="rotate(45, 266.6666666666667, 800.0000000000001)"></rect><rect width="8.947368421052632" height="8.947368421052632" x="306.63742690058484" y="795.5263157894738" fill="hsla(353, 98%, 41%, 1.00)" stroke="none" transform="rotate(45, 311.11111111111114, 800.0000000000001)"></rect><rect width="8.947368421052632" height="8.947368421052632" x="351.0818713450293" y="795.5263157894738" fill="hsla(353, 98%, 41%, 1.00)" stroke="none" transform="rotate(45, 355.5555555555556, 800.0000000000001)"></rect><rect width="8.947368421052632" height="8.947368421052632" x="395.52631578947376" y="795.5263157894738" fill="hsla(353, 98%, 41%, 1.00)" stroke="none" transform="rotate(45, 400.00000000000006, 800.0000000000001)"></rect><rect width="8.947368421052632" height="8.947368421052632" x="439.9707602339182" y="795.5263157894738" fill="hsla(353, 98%, 41%, 1.00)" stroke="none" transform="rotate(45, 444.4444444444445, 800.0000000000001)"></rect><rect width="8.947368421052632" height="8.947368421052632" x="484.41520467836267" y="795.5263157894738" fill="hsla(353, 98%, 41%, 1.00)" stroke="none" transform="rotate(45, 488.88888888888897, 800.0000000000001)"></rect><rect width="8.947368421052632" height="8.947368421052632" x="528.859649122807" y="795.5263157894738" fill="hsla(353, 98%, 41%, 1.00)" stroke="none" transform="rotate(45, 533.3333333333334, 800.0000000000001)"></rect><rect width="8.947368421052632" height="8.947368421052632" x="573.3040935672515" y="795.5263157894738" fill="hsla(353, 98%, 41%, 1.00)" stroke="none" transform="rotate(45, 577.7777777777778, 800.0000000000001)"></rect><rect width="8.947368421052632" height="8.947368421052632" x="617.7485380116959" y="795.5263157894738" fill="hsla(353, 98%, 41%, 1.00)" stroke="none" transform="rotate(45, 622.2222222222223, 800.0000000000001)"></rect><rect width="8.947368421052632" height="8.947368421052632" x="662.1929824561404" y="795.5263157894738" fill="hsla(353, 98%, 41%, 1.00)" stroke="none" transform="rotate(45, 666.6666666666667, 800.0000000000001)"></rect><rect width="8.947368421052632" height="8.947368421052632" x="706.6374269005848" y="795.5263157894738" fill="hsla(353, 98%, 41%, 1.00)" stroke="none" transform="rotate(45, 711.1111111111112, 800.0000000000001)"></rect><rect width="8.947368421052632" height="8.947368421052632" x="751.0818713450293" y="795.5263157894738" fill="hsla(353, 98%, 41%, 1.00)" stroke="none" transform="rotate(45, 755.5555555555557, 800.0000000000001)"></rect><rect width="8.947368421052632" height="8.947368421052632" x="795.5263157894738" y="795.5263157894738" fill="hsla(353, 98%, 41%, 1.00)" stroke="none" transform="rotate(45, 800.0000000000001, 800.0000000000001)"></rect></g></svg>